<svg xmlns="http://www.w3.org/2000/svg" xmlns:xlink="http://www.w3.org/1999/xlink" width="1080" zoomAndPan="magnify" viewBox="0 0 810 809.999993" height="1080" preserveAspectRatio="xMidYMid meet" version="1.0"><defs><clipPath id="59636b030b"><path d="M 242 113 L 628.578125 113 L 628.578125 810 L 242 810 Z M 242 113 " clip-rule="nonzero"/></clipPath></defs><rect x="-81" width="972" fill="#ffffff" y="-80.999999" height="971.999992" fill-opacity="1"/><rect x="-81" width="972" fill="#fffaf5" y="-80.999999" height="971.999992" fill-opacity="1"/><g clip-path="url(#59636b030b)"><path fill="#ffffff" d="M 617.539062 557.34375 C 593.777344 576.085938 557.148438 562.785156 557.148438 562.785156 L 558.964844 689.023438 C 559.257812 691.484375 559.03125 693.886719 558.355469 696.128906 C 562.621094 728.757812 568.34375 793.949219 565.828125 898.328125 C 563.257812 1004.222656 547.386719 1199.761719 545.90625 1243.820312 C 545.691406 1250.09375 541.796875 1255.71875 535.757812 1258.398438 C 526.867188 1262.347656 513.300781 1273.386719 496.917969 1273.308594 C 487.339844 1273.257812 478.851562 1259.976562 478.449219 1250.984375 L 467.515625 998.988281 L 437.871094 803.410156 L 420.292969 803.410156 C 411.089844 857.957031 394.914062 991.859375 394.265625 1014.398438 C 393.441406 1043.308594 386.167969 1211.566406 384.179688 1257.582031 C 383.882812 1264.355469 378.316406 1269.875 371.140625 1270.464844 C 359.828125 1271.394531 343.09375 1272.269531 330.71875 1270.757812 C 322.964844 1269.816406 316.59375 1264.652344 314.359375 1257.601562 C 304.59375 1226.839844 265.558594 946.34375 293.742188 696.128906 C 291.664062 692.582031 290.789062 688.375 291.566406 684.0625 L 298.859375 571.863281 C 298.859375 571.863281 280.007812 560.460938 273.800781 551 C 241.363281 501.550781 229.910156 365.832031 261.273438 318.84375 C 275.351562 297.75 336.277344 278.601562 374.101562 268.4375 C 376.199219 263.945312 378.402344 259.261719 379.796875 254.417969 C 376.1875 248.730469 373.375 242.054688 371.03125 234.808594 C 369.914062 231.359375 368.925781 226.800781 368.03125 221.574219 C 367.453125 221.878906 366.835938 222.105469 366.179688 222.210938 C 361.082031 223.09375 353.972656 213.085938 352.660156 205.195312 C 351.347656 197.292969 356.328125 194.480469 361.425781 193.605469 C 362.511719 193.421875 363.609375 193.546875 364.667969 193.921875 C 362.328125 167.824219 361.53125 140.804688 361.53125 140.804688 C 367.472656 105.433594 431.910156 112.6875 447.058594 117.824219 C 461.378906 122.6875 465.605469 142.707031 465.015625 191.410156 C 465.3125 191.410156 465.617188 191.441406 465.910156 191.488281 C 471.007812 192.371094 475.988281 195.175781 474.671875 203.078125 C 473.546875 209.820312 468.203125 218.074219 463.496094 219.800781 C 462.292969 229.378906 460.359375 237.386719 457.78125 244.054688 C 458.359375 249.582031 459.429688 258.269531 461.195312 267.003906 C 510.9375 278.933594 563.433594 305.484375 584.128906 329.433594 C 631.675781 384.441406 638.351562 540.941406 617.539062 557.34375 " fill-opacity="1" fill-rule="nonzero"/></g><path fill="#fc6d42" d="M 503.503906 363.8125 L 503.503906 512.542969 C 503.503906 518.679688 498.527344 523.648438 492.398438 523.648438 L 396.921875 523.648438 C 395.65625 484.257812 379.335938 493.269531 379.335938 493.269531 L 378.285156 523.648438 L 373.148438 523.648438 L 372.660156 487.679688 C 372.621094 484.511719 369.777344 482.003906 366.40625 482.21875 C 365.238281 482.296875 363.886719 482.445312 362.316406 482.691406 C 355.945312 483.691406 356.589844 512.070312 355.925781 523.648438 L 347.75 523.648438 L 345.074219 492.484375 C 344.738281 488.621094 339.679688 486.933594 336.886719 489.769531 C 330.4375 496.347656 328.847656 514.121094 328.042969 523.648438 L 235.605469 523.648438 C 229.46875 523.648438 224.488281 518.679688 224.488281 512.542969 L 224.488281 363.8125 C 224.488281 357.6875 229.46875 352.707031 235.605469 352.707031 L 492.398438 352.707031 C 498.527344 352.707031 503.503906 357.6875 503.503906 363.8125 " fill-opacity="1" fill-rule="nonzero"/><path fill="#000000" d="M 298.183594 323.304688 C 299.230469 324.960938 300.230469 326.660156 301.25 328.335938 C 303.230469 331.738281 305.183594 335.15625 306.789062 338.746094 C 308.839844 343.304688 310.59375 347.980469 312.164062 352.707031 L 317.769531 352.707031 C 315.683594 347.285156 313.191406 342.019531 310.445312 336.921875 C 309.535156 335.109375 308.523438 333.355469 307.496094 331.597656 C 306.523438 329.824219 305.4375 328.109375 304.339844 326.402344 C 303.191406 324.726562 302.066406 323.03125 300.761719 321.472656 C 300.125 320.679688 299.457031 319.902344 298.769531 319.140625 C 298.105469 318.382812 297.242188 317.738281 295.820312 317.648438 C 295.683594 319.070312 296.085938 319.972656 296.613281 320.804688 C 297.164062 321.621094 297.671875 322.460938 298.183594 323.304688 Z M 328.859375 515.335938 C 328.75 516.277344 328.640625 517.1875 328.554688 518.082031 C 328.640625 517.1875 328.75 516.277344 328.859375 515.335938 Z M 415.636719 218.273438 C 414.382812 218.488281 413.109375 218.792969 411.804688 218.625 C 411.167969 218.507812 410.558594 218.28125 409.992188 217.957031 C 409.707031 217.8125 409.394531 217.691406 409.070312 217.566406 L 408.570312 217.390625 C 408.394531 217.3125 408.117188 217.410156 407.1875 217.871094 C 406.5 218.644531 406.480469 219.046875 406.589844 219.261719 C 406.707031 219.488281 406.824219 219.710938 406.953125 219.917969 C 407.234375 220.332031 407.558594 220.703125 407.953125 220.996094 C 408.707031 221.59375 409.570312 222.054688 410.453125 222.476562 C 412.175781 223.398438 414.195312 223.957031 416.136719 223.878906 C 418.128906 223.917969 419.851562 223.027344 421.46875 222.25 C 422.234375 221.78125 423.03125 221.378906 423.714844 220.8125 C 424.050781 220.515625 424.363281 220.191406 424.667969 219.859375 L 425.097656 219.339844 C 425.253906 219.191406 425.304688 218.839844 424.882812 217.773438 C 424.109375 216.878906 423.804688 216.734375 423.609375 216.78125 L 422.988281 216.851562 C 422.589844 216.910156 422.1875 216.96875 421.824219 217.066406 C 421.058594 217.203125 420.363281 217.429688 419.667969 217.625 Z M 399.226562 233.203125 L 399.195312 233.191406 C 398.921875 233.113281 398.628906 233.074219 398.324219 233.085938 C 396.933594 233.164062 395.863281 234.347656 395.941406 235.75 C 396.070312 238.269531 396.65625 240.261719 397.636719 242.378906 C 398.589844 244.457031 400.175781 246.28125 402 247.703125 C 405.785156 250.582031 410.433594 251.242188 414.550781 250.996094 C 418.765625 250.828125 423.207031 249.230469 426.324219 246.191406 C 427.910156 244.722656 429.085938 242.886719 429.941406 240.996094 C 430.363281 240.035156 430.6875 239.046875 430.910156 238.046875 C 431.148438 237.066406 431.429688 235.996094 430.253906 234.808594 C 428.773438 235.507812 428.566406 236.300781 428.195312 237.132812 C 427.8125 237.9375 427.390625 238.722656 426.941406 239.464844 C 426.058594 240.976562 424.988281 242.320312 423.753906 243.425781 C 421.292969 245.691406 417.921875 246.59375 414.519531 246.347656 C 411.050781 246.132812 407.785156 245.105469 405.472656 243.230469 C 404.285156 242.308594 403.375 241.113281 402.558594 239.800781 C 402.421875 239.585938 402.316406 239.328125 402.1875 239.09375 C 403.402344 239.328125 404.617188 239.554688 405.863281 239.691406 C 408.597656 240.085938 411.394531 240.085938 414.15625 239.9375 C 416.921875 239.761719 419.667969 239.261719 422.3125 238.476562 C 423.648438 238.105469 424.941406 237.625 426.214844 237.105469 C 427.488281 236.605469 428.773438 235.867188 429.351562 234.113281 C 427.609375 233.632812 426.441406 233.886719 425.226562 234.28125 C 424.007812 234.613281 422.785156 234.90625 421.53125 235.09375 C 419.039062 235.476562 416.519531 235.664062 414.011719 235.671875 C 411.5 235.59375 409 235.457031 406.519531 235.007812 C 404.050781 234.625 401.617188 233.949219 399.226562 233.203125 Z M 401.777344 176.941406 L 401.039062 176.449219 C 400.539062 176.15625 400.039062 175.851562 399.511719 175.625 C 398.460938 175.136719 397.375 174.8125 396.257812 174.5 C 394.050781 173.890625 391.738281 173.304688 389.34375 173.507812 C 386.960938 173.644531 384.5625 174.265625 382.324219 175.285156 C 381.21875 175.8125 380.070312 176.246094 379.070312 176.988281 C 378.5625 177.351562 378.050781 177.695312 377.679688 178.214844 L 377.128906 178.980469 C 376.953125 179.222656 376.902344 179.625 377.414062 180.519531 C 378.34375 181.058594 378.707031 181.105469 378.941406 181.007812 L 379.621094 180.714844 C 380.03125 180.46875 380.523438 180.363281 380.933594 180.136719 C 381.726562 179.65625 382.667969 179.410156 383.570312 179.175781 C 385.460938 178.851562 387.433594 179.058594 389.355469 179.125 C 391.296875 179.285156 393.304688 179.214844 395.34375 179.390625 L 398.441406 179.683594 C 398.960938 179.714844 399.492188 179.734375 400.03125 179.746094 L 400.84375 179.746094 C 401.097656 179.785156 401.433594 179.597656 402.078125 178.605469 C 402.214844 177.429688 402.03125 177.078125 401.777344 176.941406 Z M 310.101562 551.265625 C 309.9375 551.746094 309.789062 552.234375 309.691406 552.726562 C 309.515625 553.765625 309.347656 554.804688 309.125 555.832031 C 308.605469 557.890625 307.976562 559.941406 307.632812 562.019531 C 307.222656 564.089844 307.28125 566.214844 307.242188 568.332031 C 307.230469 569.390625 307.183594 570.441406 307.261719 571.507812 C 307.289062 572.046875 307.378906 572.585938 307.457031 573.117188 L 307.613281 573.941406 C 307.625 574.195312 307.878906 574.488281 308.984375 574.890625 C 310.152344 574.765625 310.464844 574.527344 310.542969 574.273438 L 310.878906 573.519531 C 311.082031 573.007812 311.28125 572.5 311.425781 571.988281 C 311.761719 570.96875 311.945312 569.929688 312.171875 568.902344 C 312.613281 566.832031 313.164062 564.773438 313.230469 562.667969 C 313.367188 560.570312 313.222656 558.429688 313.183594 556.304688 C 313.191406 555.460938 313.25 554.628906 313.300781 553.785156 C 315.425781 555.792969 317.320312 558.226562 319.28125 560.746094 C 323.957031 566.773438 328.796875 573.007812 337.484375 573.578125 C 339.328125 573.695312 341.453125 573.785156 343.769531 573.785156 C 354.453125 573.785156 369.121094 571.941406 378.679688 563.234375 C 389.011719 553.832031 399.453125 546.953125 408.078125 543.875 C 416.019531 541.039062 437.351562 535.726562 445.097656 533.921875 L 459.371094 533.921875 C 459.792969 534.519531 460.3125 534.960938 460.871094 535.316406 L 463.644531 537 C 465.476562 538.128906 467.378906 539.148438 469.300781 540.136719 C 473.132812 542.117188 477.046875 543.953125 480.957031 545.792969 C 488.722656 549.578125 496.691406 552.960938 504.839844 555.960938 C 513.023438 558.851562 521.476562 560.960938 530.015625 562.617188 C 534.308594 563.292969 538.582031 564.128906 542.953125 564.371094 C 545.121094 564.578125 547.277344 564.753906 549.472656 564.6875 L 552.738281 564.667969 C 553.828125 564.6875 554.933594 564.5 556.03125 563.402344 C 554.992188 562.167969 553.953125 561.84375 552.894531 561.726562 L 549.75 561.304688 C 547.640625 561.089844 545.574219 560.570312 543.484375 560.246094 C 539.308594 559.589844 535.179688 558.628906 531.042969 557.753906 C 522.820312 555.707031 514.722656 553.234375 506.644531 550.636719 C 498.554688 548.050781 490.535156 545.195312 482.605469 542.058594 C 478.652344 540.441406 474.773438 538.675781 470.910156 536.863281 C 468.96875 535.992188 467.046875 535.070312 465.078125 534.226562 L 464.398438 533.921875 L 492.761719 533.921875 C 495.769531 533.921875 498.203125 531.492188 498.203125 528.480469 L 498.203125 521.972656 C 496.515625 523.019531 494.535156 523.648438 492.398438 523.648438 L 446.761719 523.648438 C 445.578125 522.5 444.164062 521.601562 442.644531 521.226562 C 441.902344 521.042969 441.125 521.492188 440.941406 522.257812 C 440.804688 522.785156 441.007812 523.316406 441.402344 523.648438 L 396.921875 523.648438 C 396.921875 523.628906 396.921875 523.621094 396.921875 523.589844 C 396.992188 525.558594 397.019531 527.621094 397.011719 529.84375 C 397.011719 529.84375 413.390625 525.316406 420.785156 525.316406 C 426.824219 525.316406 439.304688 524.304688 444.882812 525.757812 C 445.78125 526.660156 446.507812 527.757812 446.921875 528.777344 C 447.34375 529.816406 447.300781 530.453125 447.183594 530.578125 C 444.125 531.148438 416.734375 537.785156 407.136719 541.214844 C 398.15625 544.421875 387.382812 551.5 376.777344 561.148438 C 365.933594 571.027344 347.613281 571.410156 337.671875 570.753906 C 330.25 570.273438 326.003906 564.804688 321.515625 559.011719 C 318.199219 554.753906 314.78125 550.34375 309.9375 547.933594 C 299.546875 542.753906 275.613281 539.796875 271.988281 539.375 C 271.390625 538.816406 271.113281 538.207031 271.113281 537.480469 C 271.136719 536.375 271.761719 535.128906 272.625 533.921875 L 274.273438 533.921875 C 276.632812 531.699219 280.929688 529.679688 288.75 529.539062 C 306.742188 529.238281 326.015625 531.660156 327.296875 529.84375 C 327.582031 529.433594 327.789062 526.796875 328.101562 523.03125 C 328.09375 523.226562 328.0625 523.453125 328.042969 523.648438 L 235.605469 523.648438 C 233.667969 523.648438 231.863281 523.109375 230.273438 522.226562 L 230.273438 528.480469 C 230.273438 531.492188 232.714844 533.921875 235.726562 533.921875 L 269.3125 533.921875 C 268.714844 535.070312 268.3125 536.265625 268.300781 537.453125 C 268.28125 539.15625 269.046875 540.6875 270.527344 541.84375 C 270.734375 542 270.988281 542.097656 271.242188 542.128906 C 271.507812 542.167969 298.105469 545.1875 308.683594 550.453125 C 309.164062 550.695312 309.644531 550.972656 310.101562 551.265625 Z M 609.84375 507.699219 C 594.894531 491.210938 572.296875 483.53125 550.179688 480.335938 L 552.75 339.765625 C 552.777344 338.207031 551.53125 336.914062 549.972656 336.894531 C 549.964844 336.894531 549.945312 336.894531 549.925781 336.894531 C 548.394531 336.894531 547.132812 338.117188 547.113281 339.65625 L 544.550781 479.613281 C 529.417969 477.914062 514.847656 478.160156 503.503906 478.914062 L 503.503906 484.679688 C 531.699219 482.847656 580.875 484.140625 605.667969 511.492188 C 606.214844 512.109375 606.980469 512.414062 607.753906 512.414062 C 608.433594 512.414062 609.109375 512.167969 609.648438 511.6875 C 610.804688 510.640625 610.894531 508.855469 609.84375 507.699219 Z M 553.414062 700.425781 C 452.675781 738.933594 295.25 696.542969 293.671875 696.101562 C 292.164062 695.699219 290.613281 696.570312 290.203125 698.082031 C 289.789062 699.582031 290.671875 701.128906 292.183594 701.542969 C 293.085938 701.796875 345.179688 715.816406 408.773438 720.589844 C 408.285156 721.394531 408.175781 722.128906 408.207031 722.863281 L 408.332031 725.589844 C 408.433594 727.414062 408.609375 729.226562 408.792969 731.03125 L 409.980469 741.894531 C 410.667969 749.136719 411.246094 756.402344 412.175781 763.636719 C 412.707031 767.246094 413.117188 770.863281 413.863281 774.488281 C 414.03125 775.382812 414.226562 776.304688 414.441406 777.246094 C 414.558594 777.734375 414.589844 778.085938 414.871094 778.910156 C 415.011719 779.292969 415.070312 779.597656 415.304688 780 C 415.636719 780.449219 416.070312 780.921875 416.460938 781.242188 C 418.53125 782.636719 420.117188 783.183594 421.890625 783.960938 C 425.351562 785.371094 428.785156 786.636719 432.285156 787.734375 C 434.007812 788.320312 435.785156 788.78125 437.558594 789.273438 L 439.351562 789.761719 C 439.382812 789.910156 439.410156 790.066406 439.429688 790.214844 C 439.683594 791.742188 440.046875 793.253906 440.382812 794.78125 L 440.882812 797.058594 C 440.960938 797.457031 441.105469 797.851562 441.410156 798.234375 C 437.203125 798.15625 433.007812 798.125 428.8125 798.183594 C 420.832031 798.28125 412.863281 798.675781 404.882812 798.957031 L 392.914062 799.175781 C 390.914062 799.222656 388.921875 799.28125 386.933594 799.410156 L 383.941406 799.636719 C 382.941406 799.714844 381.941406 799.96875 380.953125 800.996094 C 381.941406 802.015625 382.941406 802.28125 383.941406 802.351562 L 386.933594 802.578125 C 388.921875 802.714844 390.914062 802.761719 392.914062 802.820312 L 404.882812 803.035156 C 406.070312 803.078125 407.246094 803.125 408.433594 803.175781 L 408.117188 803.449219 C 407.65625 803.898438 407.226562 804.359375 406.835938 804.851562 C 406.058594 805.859375 405.304688 806.859375 404.492188 807.839844 C 402.824219 809.742188 401.058594 811.585938 399.519531 813.59375 C 397.933594 815.546875 396.738281 817.792969 395.453125 819.976562 C 394.824219 821.074219 394.15625 822.144531 393.609375 823.289062 C 393.324219 823.871094 393.070312 824.457031 392.824219 825.054688 L 392.492188 825.976562 C 392.34375 826.261719 392.394531 826.683594 393.148438 827.59375 C 394.277344 827.996094 394.6875 827.898438 394.902344 827.664062 L 395.648438 827.035156 C 396.128906 826.59375 396.597656 826.164062 397.039062 825.703125 C 397.933594 824.789062 398.707031 823.789062 399.519531 822.832031 C 401.136719 820.871094 402.835938 818.988281 404.128906 816.8125 C 405.492188 814.691406 406.617188 812.398438 407.84375 810.175781 C 408.472656 809.085938 409.167969 808.027344 409.832031 806.957031 C 410.167969 806.417969 410.453125 805.851562 410.714844 805.261719 L 411.078125 804.359375 C 411.175781 804.125 411.148438 803.800781 410.8125 803.261719 C 416.8125 803.488281 422.8125 803.734375 428.8125 803.8125 C 436.792969 803.929688 444.773438 803.703125 452.742188 803.476562 C 452.929688 803.476562 453.125 803.46875 453.3125 803.46875 C 453.3125 803.496094 453.300781 803.546875 453.300781 803.578125 L 453.460938 804.496094 C 453.597656 805.097656 453.753906 805.695312 453.960938 806.261719 C 454.390625 807.390625 454.820312 808.515625 455.214844 809.664062 C 455.917969 811.996094 456.527344 814.371094 457.398438 816.625 C 458.195312 818.917969 459.4375 821.007812 460.585938 823.144531 C 461.175781 824.203125 461.714844 825.289062 462.390625 826.320312 C 462.714844 826.828125 463.078125 827.328125 463.457031 827.828125 L 464.035156 828.566406 C 464.203125 828.820312 464.585938 828.988281 465.761719 828.800781 C 466.695312 828.066406 466.832031 827.683594 466.753906 827.390625 L 466.617188 826.457031 C 466.507812 825.847656 466.390625 825.230469 466.234375 824.644531 C 465.949219 823.457031 465.527344 822.320312 465.144531 821.164062 C 464.359375 818.871094 463.683594 816.527344 462.558594 814.378906 C 461.496094 812.203125 460.175781 810.144531 458.957031 808.046875 C 458.371094 806.976562 457.851562 805.878906 457.320312 804.800781 C 457.066406 804.3125 456.773438 803.839844 456.460938 803.378906 C 459.203125 803.300781 461.957031 803.234375 464.714844 803.078125 C 466.714844 803.015625 468.703125 802.839844 470.703125 802.695312 L 473.695312 802.46875 C 474.683594 802.417969 475.683594 802.15625 476.683594 800.996094 C 475.683594 799.832031 474.683594 799.578125 473.695312 799.515625 L 470.703125 799.300781 C 468.703125 799.15625 466.714844 798.976562 464.714844 798.910156 C 460.722656 798.695312 456.734375 798.625 452.742188 798.507812 C 449.636719 798.429688 446.519531 798.351562 443.402344 798.28125 C 443.742188 797.734375 443.832031 797.203125 443.8125 796.695312 L 443.742188 794.371094 C 443.703125 792.8125 443.695312 791.253906 443.578125 789.703125 C 443.410156 786.617188 443.105469 783.527344 442.84375 780.441406 C 442.324219 774.273438 441.792969 768.097656 440.921875 761.960938 C 440.066406 755.824219 438.929688 749.726562 437.910156 743.617188 L 436.566406 734.421875 C 436.324219 732.894531 436.085938 731.363281 435.765625 729.84375 L 435.265625 727.570312 C 435.097656 726.804688 434.746094 726.070312 433.636719 725.421875 C 432.707031 726.316406 432.539062 727.121094 432.558594 727.894531 L 432.625 730.226562 C 432.675781 731.777344 432.8125 733.324219 432.949219 734.863281 L 433.851562 744.109375 C 434.324219 750.285156 434.695312 756.492188 435.34375 762.636719 C 435.96875 768.804688 436.941406 774.921875 437.910156 781.039062 C 438.183594 782.722656 438.441406 784.402344 438.714844 786.085938 C 437.058594 785.320312 435.429688 784.527344 433.753906 783.832031 C 430.460938 782.351562 427.109375 780.96875 423.921875 779.429688 C 422.5 778.734375 420.882812 777.910156 419.921875 777.222656 C 419.921875 777.195312 419.921875 777.15625 419.921875 777.144531 L 419.753906 776.15625 C 419.597656 775.324219 419.46875 774.449219 419.351562 773.558594 C 418.882812 770.007812 418.265625 766.421875 417.746094 762.832031 C 416.617188 755.675781 415.265625 748.519531 414.03125 741.355469 L 412.414062 730.570312 C 412.117188 728.777344 411.832031 726.980469 411.480469 725.1875 L 410.914062 722.519531 C 410.785156 721.882812 410.539062 721.265625 410.019531 720.6875 C 422.707031 721.609375 435.824219 722.179688 449.085938 722.179688 C 485.710938 722.179688 523.359375 717.953125 555.433594 705.699219 C 556.886719 705.128906 557.609375 703.503906 557.0625 702.050781 C 556.503906 700.589844 554.875 699.867188 553.414062 700.425781 Z M 327.398438 1018.820312 L 326.425781 1018.417969 C 325.777344 1018.183594 325.152344 1017.949219 324.535156 1017.644531 C 323.925781 1017.359375 323.308594 1017.113281 322.691406 1016.890625 C 322.09375 1016.613281 321.515625 1016.292969 320.925781 1015.996094 C 318.59375 1014.761719 316.542969 1013.164062 314.464844 1011.574219 C 312.398438 1009.96875 310.289062 1008.253906 308.457031 1006.203125 C 307.585938 1005.15625 306.789062 1004.027344 306.066406 1002.859375 C 305.683594 1002.28125 305.28125 1001.722656 304.867188 1001.164062 L 304.230469 1000.320312 C 304.015625 1000.046875 303.644531 999.859375 302.566406 999.898438 C 301.75 1000.605469 301.652344 1001.085938 301.75 1001.449219 C 301.839844 1001.820312 301.917969 1002.203125 302.035156 1002.566406 C 302.261719 1003.292969 302.535156 1004.007812 302.878906 1004.675781 C 303.566406 1006.015625 304.359375 1007.300781 305.144531 1008.59375 C 306.691406 1011.203125 308.503906 1013.773438 310.828125 1015.878906 C 313.082031 1018.074219 316.015625 1019.507812 318.957031 1020.566406 C 319.699219 1020.800781 320.4375 1021.074219 321.191406 1021.289062 C 321.957031 1021.457031 322.730469 1021.59375 323.496094 1021.710938 C 324.257812 1021.859375 325.054688 1021.839844 325.828125 1021.808594 L 326.996094 1021.742188 C 327.378906 1021.761719 327.796875 1021.535156 328.257812 1020.457031 C 328.015625 1019.25 327.71875 1018.917969 327.398438 1018.820312 Z M 543.074219 1004.234375 L 541.984375 1004.664062 C 541.269531 1004.96875 540.5625 1005.300781 539.886719 1005.664062 C 538.542969 1006.410156 537.199219 1007.15625 535.808594 1007.8125 C 532.996094 1009.074219 530.113281 1010.152344 527.328125 1011.332031 C 524.515625 1012.429688 521.859375 1013.898438 519.09375 1014.996094 C 517.710938 1015.574219 516.300781 1016.015625 514.917969 1016.535156 L 512.820312 1017.3125 L 511.761719 1017.652344 C 511.398438 1017.742188 511.0625 1018.054688 510.730469 1019.242188 C 511.171875 1020.351562 511.613281 1020.585938 512.023438 1020.59375 L 513.289062 1020.710938 C 514.132812 1020.75 514.957031 1020.691406 515.789062 1020.644531 C 517.445312 1020.488281 519.054688 1020.125 520.621094 1019.722656 C 523.789062 1018.917969 526.878906 1017.9375 529.699219 1016.429688 C 532.574219 1014.988281 535.199219 1013.164062 537.816406 1011.371094 L 541.796875 1008.792969 C 542.445312 1008.359375 543.074219 1007.851562 543.671875 1007.339844 L 544.550781 1006.515625 C 544.847656 1006.242188 545.03125 1005.800781 544.789062 1004.734375 C 543.90625 1004.105469 543.433594 1004.085938 543.074219 1004.234375 Z M 441.164062 196.722656 C 442.84375 194.480469 442.410156 191.273438 440.203125 189.566406 C 438 187.871094 434.851562 188.300781 433.175781 190.558594 C 431.5 192.792969 431.929688 196 434.136719 197.703125 C 436.351562 199.398438 439.488281 198.96875 441.164062 196.722656 Z M 373.238281 530.148438 L 378.050781 530.148438 L 378.285156 523.648438 L 373.148438 523.648438 L 373.03125 515.335938 Z M 385.441406 433.722656 C 385.441406 424.457031 377.464844 416.949219 367.621094 416.949219 C 357.769531 416.949219 349.789062 424.457031 349.789062 433.722656 C 349.789062 442.984375 357.769531 450.496094 367.621094 450.496094 C 377.464844 450.496094 385.441406 442.984375 385.441406 433.722656 Z M 348.023438 180.941406 C 348.308594 180.664062 348.632812 180.410156 348.933594 180.136719 C 350.433594 185.980469 352.464844 191.761719 354.679688 197.183594 C 356.394531 195.519531 358.816406 194.636719 361.269531 194.214844 C 366.160156 193.371094 371.128906 198.597656 372.6875 206.007812 L 372.71875 205.488281 C 372.71875 205.488281 376.679688 188.910156 370.765625 178.039062 C 369.335938 175.421875 368.90625 172.246094 369.042969 168.949219 C 379.589844 165.109375 391.972656 162.480469 404.421875 160.390625 C 402.726562 166.773438 402.15625 171.332031 402.15625 171.332031 C 402.15625 171.332031 425.167969 165.5 444.910156 157.550781 L 460.261719 168.921875 L 459.085938 191.851562 L 459.578125 194.164062 C 461.457031 192.539062 463.617188 191.734375 465.761719 192.097656 C 467.957031 192.480469 470.136719 193.214844 471.78125 194.566406 C 477.917969 176.480469 484.074219 150.039062 475.910156 132.316406 C 478.644531 124.816406 480.390625 114.238281 473.488281 105.894531 C 456.125 84.914062 384.519531 81.023438 365.03125 96.238281 C 362.316406 98.347656 376.246094 103.609375 372.964844 104.679688 C 359.628906 109.003906 342.082031 118.042969 337.269531 131.394531 C 330.757812 149.441406 330.09375 164.195312 331.535156 175.292969 C 332.574219 183.242188 342.277344 186.519531 348.023438 180.941406 Z M 348.179688 528.640625 C 348.179688 528.640625 353.316406 531.363281 355.25 528.335938 C 355.582031 527.816406 355.777344 526.089844 355.925781 523.648438 L 347.75 523.648438 Z M 386.601562 198.753906 C 388.804688 200.457031 391.941406 200.019531 393.617188 197.773438 C 395.296875 195.527344 394.863281 192.332031 392.660156 190.625 C 390.453125 188.921875 387.304688 189.363281 385.628906 191.605469 C 383.960938 193.851562 384.394531 197.058594 386.601562 198.753906 Z M 449.320312 174.714844 L 448.566406 174.324219 C 448.066406 174.085938 447.546875 173.863281 447.027344 173.695312 C 445.988281 173.332031 444.910156 173.136719 443.84375 172.921875 C 441.695312 172.519531 439.5 172.125 437.273438 172.371094 C 435.046875 172.546875 432.851562 173.167969 430.734375 173.871094 C 429.667969 174.253906 428.578125 174.507812 427.539062 174.96875 C 427.019531 175.195312 426.507812 175.441406 426.046875 175.792969 L 425.371094 176.351562 C 425.148438 176.527344 425.007812 176.902344 425.246094 177.910156 C 425.949219 178.695312 426.285156 178.851562 426.539062 178.8125 L 427.285156 178.714844 C 427.753906 178.597656 428.253906 178.566406 428.726562 178.441406 C 429.628906 178.15625 430.605469 178.007812 431.558594 177.871094 C 433.527344 177.773438 435.488281 177.960938 437.449219 177.988281 C 439.402344 178.117188 441.371094 177.882812 443.382812 177.871094 C 444.382812 177.84375 445.390625 177.902344 446.410156 177.84375 C 446.921875 177.824219 447.441406 177.765625 447.960938 177.714844 L 448.742188 177.605469 C 449.007812 177.617188 449.292969 177.390625 449.792969 176.324219 C 449.792969 175.144531 449.578125 174.8125 449.320312 174.714844 Z M 382.726562 262.5625 C 383.277344 263.320312 383.863281 264.015625 384.460938 264.730469 C 385.6875 266.101562 387.019531 267.386719 388.453125 268.554688 C 391.304688 270.898438 394.472656 272.867188 397.796875 274.535156 C 401.136719 276.179688 404.707031 277.40625 408.382812 278.25 C 412.089844 278.886719 415.84375 279.375 419.667969 278.984375 C 427.351562 278.496094 434.488281 275.210938 440.578125 271.0625 C 443.644531 268.976562 446.480469 266.601562 449.039062 263.976562 C 450.339844 262.691406 451.519531 261.28125 452.636719 259.839844 C 453.214844 259.121094 453.753906 258.378906 454.292969 257.652344 C 454.832031 256.925781 455.234375 256.035156 454.832031 254.613281 C 453.371094 254.632812 452.636719 255.113281 452.046875 255.742188 C 451.421875 256.347656 450.800781 256.957031 450.15625 257.523438 C 448.871094 258.699219 447.527344 259.800781 446.214844 260.90625 C 443.527344 263.0625 440.804688 265.160156 437.882812 266.898438 C 434.949219 268.582031 431.949219 270.171875 428.773438 271.179688 C 428 271.503906 427.195312 271.699219 426.402344 271.917969 C 425.609375 272.140625 424.8125 272.40625 424.019531 272.601562 C 422.402344 272.855469 420.804688 273.328125 419.15625 273.375 L 416.707031 273.632812 L 414.207031 273.621094 C 412.53125 273.71875 410.894531 273.425781 409.214844 273.335938 C 405.914062 272.855469 402.636719 272.054688 399.492188 270.808594 C 396.363281 269.496094 393.433594 267.730469 390.707031 265.691406 C 389.316406 264.691406 388.019531 263.582031 386.699219 262.484375 C 386.058594 261.917969 385.382812 261.367188 384.777344 260.769531 C 384.140625 260.171875 383.421875 259.710938 382.070312 259.613281 C 381.777344 260.925781 382.179688 261.847656 382.726562 262.5625 Z M 424.960938 185.332031 C 424.949219 184.625 424.882812 183.921875 424.804688 183.203125 L 424.628906 182.144531 C 424.578125 181.792969 424.324219 181.429688 423.332031 181.019531 C 422.292969 181.3125 422 181.65625 421.910156 182.007812 L 421.636719 183.058594 C 421.480469 183.761719 421.363281 184.460938 421.292969 185.175781 L 420.929688 189.429688 C 420.570312 192.261719 420.117188 195.097656 420.03125 197.96875 C 419.851562 200.832031 420.207031 203.703125 420.589844 206.597656 C 420.785156 208.046875 420.988281 209.507812 421.410156 210.96875 C 421.636719 211.714844 421.84375 212.410156 422.226562 213.175781 C 422.421875 213.554688 422.558594 213.890625 422.804688 214.28125 C 423.039062 214.695312 423.558594 215.066406 424.648438 214.703125 C 425.421875 213.714844 425.628906 213.4375 425.558594 213.222656 C 425.539062 212.96875 425.546875 212.59375 425.546875 212.292969 C 425.507812 211.714844 425.578125 210.996094 425.558594 210.351562 C 425.578125 209.015625 425.507812 207.65625 425.546875 206.28125 C 425.570312 203.539062 425.832031 200.742188 425.648438 197.957031 C 425.539062 195.175781 425.214844 192.371094 425.007812 189.546875 C 424.941406 188.136719 424.960938 186.734375 424.960938 185.332031 Z M 387.679688 300.167969 C 383.265625 296.523438 379.363281 292.367188 375.933594 287.875 C 374.21875 285.640625 372.640625 283.289062 371.285156 280.816406 C 370.570312 279.601562 369.945312 278.335938 369.285156 277.09375 C 368.679688 275.835938 368.238281 274.445312 368.582031 272.757812 C 370.082031 273.5625 370.953125 274.613281 371.667969 275.777344 C 372.414062 276.90625 373.121094 278.0625 373.925781 279.160156 C 374.6875 280.289062 375.511719 281.355469 376.324219 282.433594 C 377.101562 283.542969 377.941406 284.601562 378.804688 285.640625 C 382.207031 289.828125 385.953125 293.730469 390.207031 296.964844 C 394.519531 300.101562 399.207031 302.609375 404.15625 304.308594 C 405.402344 304.667969 406.675781 304.953125 407.933594 305.285156 C 408.570312 305.433594 409.1875 305.628906 409.824219 305.746094 L 411.753906 305.953125 C 413.050781 306.082031 414.332031 306.296875 415.617188 306.355469 L 419.511719 306.238281 C 430.019531 305.796875 440.480469 302.71875 449 296.628906 C 453.242188 293.550781 456.851562 289.640625 459.9375 285.347656 C 461.457031 283.171875 462.859375 280.90625 464.105469 278.535156 C 464.675781 277.328125 465.28125 276.132812 465.773438 274.886719 C 466.28125 273.632812 466.890625 272.476562 468.332031 271.398438 C 469.15625 273.003906 468.996094 274.503906 468.566406 275.847656 C 468.183594 277.230469 467.683594 278.5625 467.203125 279.90625 C 466.15625 282.5625 464.957031 285.191406 463.429688 287.621094 C 460.457031 292.542969 456.585938 296.972656 452.007812 300.570312 C 447.402344 304.121094 442.234375 306.945312 436.734375 308.84375 C 434 309.765625 431.167969 310.472656 428.332031 310.992188 L 424.050781 311.5625 L 421.910156 311.835938 C 421.175781 311.863281 420.441406 311.863281 419.707031 311.855469 L 415.3125 311.804688 C 413.851562 311.6875 412.414062 311.40625 410.960938 311.199219 L 408.792969 310.863281 C 408.078125 310.71875 407.382812 310.472656 406.675781 310.277344 C 405.273438 309.855469 403.875 309.472656 402.492188 309.003906 C 397.070312 306.824219 392.109375 303.777344 387.679688 300.167969 " fill-opacity="1" fill-rule="nonzero"/><path fill="#e3386a" d="M 526.808594 666.496094 L 528.277344 663.839844 C 529.296875 662.074219 530.152344 660.230469 530.957031 658.367188 C 532.699219 654.699219 533.984375 650.859375 535.367188 647.054688 C 537.925781 639.378906 540.140625 631.574219 541.5625 623.613281 C 542.992188 615.671875 543.828125 607.636719 544.453125 599.617188 C 544.789062 595.605469 545.152344 591.605469 545.355469 587.585938 C 545.453125 585.585938 545.523438 583.578125 545.492188 581.558594 L 545.414062 578.539062 C 545.386719 577.527344 545.152344 576.507812 544.140625 575.488281 C 543.101562 576.46875 542.808594 577.441406 542.691406 578.441406 L 542.335938 581.402344 L 541.71875 587.332031 C 541.355469 591.28125 540.945312 595.222656 540.394531 599.164062 C 539.230469 607.015625 537.640625 614.792969 536.042969 622.535156 C 534.414062 630.269531 532.691406 637.957031 530.632812 645.582031 C 529.484375 649.347656 528.378906 653.132812 527.074219 656.859375 C 526.417969 658.710938 525.90625 660.632812 525.171875 662.464844 L 524.140625 665.238281 C 523.777344 666.171875 523.601562 667.171875 524.230469 668.59375 C 525.679688 668.199219 526.339844 667.398438 526.808594 666.496094 Z M 285.703125 335.296875 C 286.230469 335.667969 286.78125 336.011719 287.339844 336.324219 C 288.476562 336.921875 289.605469 337.519531 290.703125 338.195312 L 297.054688 342.511719 C 299.132812 343.953125 301.4375 345.011719 303.566406 346.324219 C 304.632812 346.953125 305.664062 347.65625 306.722656 348.304688 C 307.242188 348.636719 307.820312 348.921875 308.359375 349.246094 L 309.171875 349.726562 C 309.425781 349.914062 309.839844 349.933594 310.90625 349.382812 C 311.535156 348.382812 311.484375 347.933594 311.28125 347.667969 L 310.730469 346.753906 C 310.339844 346.167969 309.898438 345.636719 309.445312 345.109375 C 308.542969 344.058594 307.496094 343.175781 306.476562 342.296875 C 304.40625 340.53125 302.28125 338.863281 299.898438 337.65625 C 297.546875 336.394531 295.015625 335.492188 292.535156 334.550781 L 288.898438 333.011719 C 288.289062 332.757812 287.652344 332.570312 287.007812 332.402344 L 286.015625 332.207031 C 285.683594 332.136719 285.269531 332.257812 284.566406 333.058594 C 284.46875 334.117188 284.652344 334.5 284.910156 334.699219 Z M 549.289062 415.890625 C 550.425781 415.613281 550.808594 415.222656 551.011719 414.792969 L 551.609375 413.476562 C 551.925781 412.59375 552.386719 411.773438 552.828125 410.9375 C 553.5625 409.222656 554.660156 407.695312 555.730469 406.164062 C 558.1875 403.3125 561.128906 400.96875 564.167969 398.761719 C 567.277344 396.644531 570.414062 394.488281 573.816406 392.65625 C 575.503906 391.722656 577.257812 390.921875 579.003906 390.039062 L 581.628906 388.742188 L 582.953125 388.078125 C 583.402344 387.890625 583.785156 387.507812 583.980469 386.261719 C 583.207031 385.253906 582.628906 385.15625 582.121094 385.242188 L 580.582031 385.460938 C 579.570312 385.65625 578.53125 385.832031 577.550781 386.136719 C 575.550781 386.644531 573.609375 387.371094 571.699219 388.164062 C 567.886719 389.761719 564.070312 391.585938 560.777344 394.273438 C 557.484375 396.929688 554.679688 400.222656 552.394531 403.8125 C 551.355469 405.675781 550.191406 407.449219 549.492188 409.476562 C 549.101562 410.46875 548.699219 411.449219 548.589844 412.527344 L 548.375 414.105469 C 548.296875 414.625 548.414062 415.203125 549.289062 415.890625 Z M 594.835938 1306.433594 L 545.652344 1245.398438 C 545.082031 1251.269531 541.328125 1256.476562 535.613281 1259.015625 C 526.71875 1262.957031 513.152344 1273.996094 496.761719 1273.914062 C 491.359375 1273.886719 486.308594 1269.652344 482.851562 1264.347656 C 483.25 1270.996094 483.851562 1276.640625 484.730469 1278.355469 C 487.269531 1283.328125 507.25 1291.070312 518.464844 1307.824219 C 528.5625 1322.902344 557.953125 1337.285156 591.03125 1321.835938 C 597.148438 1318.980469 598.960938 1311.542969 594.835938 1306.433594 Z M 381.375 1265.425781 C 381.855469 1268.042969 382.089844 1270.0625 381.914062 1271.042969 C 380.953125 1276.484375 364.082031 1289.179688 358.296875 1308.226562 C 353.089844 1325.363281 329.152344 1346.914062 292.808594 1340.804688 C 286.085938 1339.675781 282.132812 1333.019531 284.566406 1327.011719 L 313.503906 1255.738281 C 313.75 1256.671875 313.984375 1257.523438 314.203125 1258.210938 C 316.4375 1265.257812 322.820312 1270.425781 330.5625 1271.367188 C 342.933594 1272.886719 359.667969 1272.003906 370.992188 1271.074219 C 375.316406 1270.71875 379.023438 1268.554688 381.375 1265.425781 " fill-opacity="1" fill-rule="nonzero"/><path fill="#fc6d42" d="M 201.257812 452.023438 C 200.519531 452.015625 199.777344 452.015625 199.03125 452.082031 C 197.539062 452.222656 196.03125 452.523438 194.578125 453.113281 C 193.128906 453.683594 191.699219 454.484375 190.492188 455.574219 C 189.855469 456.074219 189.324219 456.730469 188.796875 457.308594 L 187.472656 458.917969 C 185.746094 461.074219 184.179688 462.917969 182.621094 463.300781 C 181.011719 463.769531 178.5625 463.574219 176.089844 463.09375 C 173.304688 462.613281 170.179688 461.996094 166.601562 463.238281 C 164.816406 463.859375 163.160156 465.386719 162.375 466.996094 C 161.542969 468.601562 161.25 470.160156 161.03125 471.621094 C 160.914062 472.347656 160.835938 473.074219 160.757812 473.777344 C 160.679688 474.191406 160.609375 474.59375 160.433594 474.875 C 160.121094 475.457031 159.355469 475.867188 158.277344 476.113281 C 157.21875 476.347656 155.972656 476.355469 154.710938 476.328125 C 154.082031 476.316406 153.433594 476.289062 152.777344 476.21875 C 152.132812 476.152344 151.464844 476.257812 150.511719 477.035156 C 150.867188 478.230469 151.523438 478.660156 152.199219 478.886719 C 152.886719 479.101562 153.589844 479.316406 154.308594 479.464844 C 155.75 479.777344 157.257812 479.914062 158.894531 479.710938 C 160.472656 479.523438 162.445312 478.75 163.628906 476.996094 C 164.21875 476.121094 164.492188 475.210938 164.679688 474.277344 C 164.796875 473.632812 164.90625 472.996094 165.042969 472.386719 C 165.347656 471.179688 165.757812 470.054688 166.296875 469.289062 C 166.835938 468.515625 167.386719 468.152344 168.21875 467.957031 C 169.042969 467.75 170.121094 467.730469 171.277344 467.898438 C 172.445312 468.015625 173.601562 468.277344 174.914062 468.582031 C 177.71875 469.160156 180.914062 469.875 184.53125 468.523438 C 186.304688 467.835938 187.777344 466.601562 188.824219 465.40625 C 189.882812 464.199219 190.667969 463.015625 191.453125 461.898438 L 192.597656 460.25 C 192.960938 459.800781 193.246094 459.347656 193.667969 458.976562 C 194.441406 458.191406 195.304688 457.457031 196.34375 456.898438 C 197.375 456.328125 198.480469 455.839844 199.675781 455.464844 C 200.265625 455.261719 200.875 455.101562 201.492188 454.964844 C 202.128906 454.867188 202.695312 454.582031 203.421875 453.457031 C 202.785156 452.25 201.992188 452.023438 201.257812 452.023438 Z M 156.433594 404.554688 L 158.1875 403.417969 C 160.492188 401.890625 162.609375 400.539062 164.246094 400.585938 C 165.925781 400.558594 168.199219 401.429688 170.433594 402.617188 C 172.953125 403.871094 175.816406 405.398438 179.601562 405.214844 C 181.503906 405.136719 183.492188 404.175781 184.726562 402.890625 C 186.011719 401.636719 186.796875 400.261719 187.472656 398.9375 C 187.816406 398.28125 188.121094 397.625 188.421875 396.980469 C 188.667969 396.566406 188.835938 396.195312 189.121094 395.960938 C 189.628906 395.46875 190.460938 395.28125 191.558594 395.339844 C 192.648438 395.410156 193.84375 395.742188 195.039062 396.136719 C 195.648438 396.320312 196.257812 396.546875 196.863281 396.792969 C 197.472656 397.046875 198.136719 397.144531 199.277344 396.683594 C 199.285156 395.4375 198.777344 394.832031 198.1875 394.410156 C 197.589844 394 196.980469 393.597656 196.335938 393.242188 C 195.03125 392.527344 193.597656 391.960938 191.953125 391.714844 C 190.363281 391.449219 188.257812 391.695312 186.660156 393.027344 C 185.855469 393.65625 185.324219 394.480469 184.863281 395.242188 C 184.5625 395.820312 184.246094 396.390625 183.914062 396.929688 C 183.226562 397.980469 182.480469 398.917969 181.71875 399.507812 C 180.941406 400.097656 180.265625 400.292969 179.402344 400.242188 C 178.542969 400.203125 177.511719 399.917969 176.445312 399.417969 C 175.355469 398.976562 174.335938 398.378906 173.160156 397.683594 C 170.628906 396.3125 167.6875 394.695312 163.808594 395.039062 C 161.925781 395.222656 160.199219 395.988281 158.867188 396.8125 C 157.511719 397.644531 156.40625 398.527344 155.308594 399.359375 L 153.699219 400.597656 C 153.21875 400.898438 152.796875 401.261719 152.277344 401.496094 C 151.289062 402.015625 150.21875 402.46875 149.0625 402.714844 C 147.90625 402.957031 146.691406 403.117188 145.433594 403.136719 C 144.808594 403.164062 144.179688 403.125 143.535156 403.085938 C 142.894531 402.996094 142.269531 403.105469 141.25 403.96875 C 141.515625 405.300781 142.21875 405.761719 142.914062 405.96875 C 143.632812 406.195312 144.347656 406.410156 145.082031 406.554688 C 146.550781 406.851562 148.101562 406.988281 149.660156 406.839844 C 151.210938 406.714844 152.808594 406.371094 154.289062 405.695312 C 155.042969 405.398438 155.738281 404.949219 156.433594 404.554688 Z M 148.640625 327.058594 C 149.875 327.921875 151.238281 328.660156 152.730469 329.140625 C 154.210938 329.640625 155.796875 329.953125 157.40625 329.914062 C 158.210938 329.953125 159.023438 329.816406 159.808594 329.746094 L 161.855469 329.421875 C 164.570312 328.980469 167.109375 328.570312 168.601562 329.246094 C 170.128906 329.824219 171.785156 331.5 173.304688 333.519531 C 175.050781 335.707031 177.042969 338.355469 180.679688 339.65625 C 182.492188 340.304688 184.648438 340.128906 186.246094 339.492188 C 187.882812 338.875 189.167969 337.972656 190.324219 337.078125 C 190.914062 336.628906 191.472656 336.175781 192.019531 335.71875 C 192.472656 335.414062 192.765625 335.117188 193.148438 335.019531 C 193.863281 334.757812 194.65625 334.882812 195.628906 335.335938 C 196.570312 335.804688 197.519531 336.578125 198.441406 337.414062 C 198.914062 337.835938 199.375 338.285156 199.816406 338.765625 C 200.257812 339.246094 200.816406 339.609375 202.039062 339.675781 C 202.578125 338.558594 202.375 337.785156 202.011719 337.167969 C 201.648438 336.539062 201.265625 335.914062 200.816406 335.316406 C 199.921875 334.128906 198.835938 333.019531 197.382812 332.148438 C 196 331.257812 193.902344 330.757812 192 331.363281 C 191.039062 331.597656 190.246094 332.1875 189.558594 332.617188 C 189.03125 333.011719 188.5 333.394531 187.972656 333.738281 C 186.902344 334.394531 185.824219 334.941406 184.855469 335.175781 C 183.875 335.402344 183.140625 335.34375 182.394531 334.992188 C 181.640625 334.636719 180.84375 333.960938 180.089844 333.097656 C 179.285156 332.265625 178.628906 331.316406 177.855469 330.199219 C 176.992188 328.992188 176.050781 327.785156 174.875 326.660156 C 173.679688 325.550781 172.160156 324.472656 170.324219 323.941406 C 168.503906 323.394531 166.660156 323.441406 165.128906 323.660156 C 163.582031 323.882812 162.21875 324.238281 160.886719 324.550781 L 158.925781 325.011719 C 158.347656 325.101562 157.816406 325.257812 157.25 325.265625 C 156.121094 325.363281 154.964844 325.34375 153.808594 325.109375 C 152.660156 324.875 151.484375 324.550781 150.347656 324.0625 C 149.757812 323.835938 149.199219 323.550781 148.640625 323.265625 C 148.101562 322.921875 147.484375 322.777344 146.191406 323.140625 C 145.886719 324.460938 146.347656 325.167969 146.894531 325.640625 C 147.453125 326.140625 148.023438 326.628906 148.640625 327.058594 Z M 618.707031 449.554688 C 618.15625 449.0625 617.578125 448.574219 616.960938 448.152344 C 615.726562 447.289062 614.363281 446.554688 612.871094 446.074219 C 611.390625 445.585938 609.804688 445.261719 608.195312 445.308594 C 607.382812 445.269531 606.578125 445.417969 605.792969 445.484375 L 603.734375 445.820312 C 601.03125 446.261719 598.492188 446.683594 596.992188 446.015625 C 595.472656 445.4375 593.804688 443.761719 592.277344 441.75 C 590.519531 439.574219 588.53125 436.925781 584.894531 435.625 C 583.070312 434.988281 580.921875 435.171875 579.324219 435.808594 C 577.6875 436.4375 576.414062 437.339844 575.246094 438.230469 C 574.660156 438.683594 574.109375 439.144531 573.5625 439.59375 C 573.109375 439.90625 572.816406 440.203125 572.433594 440.300781 C 571.726562 440.566406 570.914062 440.4375 569.953125 439.984375 C 569.003906 439.527344 568.0625 438.75 567.128906 437.90625 C 566.660156 437.496094 566.199219 437.046875 565.757812 436.566406 C 565.316406 436.09375 564.746094 435.730469 563.53125 435.671875 C 562.992188 436.789062 563.199219 437.554688 563.5625 438.183594 C 563.933594 438.808594 564.316406 439.4375 564.765625 440.027344 C 565.660156 441.210938 566.757812 442.308594 568.199219 443.183594 C 569.601562 444.066406 571.6875 444.566406 573.589844 443.945312 C 574.550781 443.710938 575.34375 443.132812 576.03125 442.683594 C 576.550781 442.300781 577.082031 441.90625 577.609375 441.566406 C 578.679688 440.90625 579.757812 440.359375 580.71875 440.113281 C 581.699219 439.886719 582.441406 439.945312 583.1875 440.308594 C 583.941406 440.644531 584.746094 441.320312 585.5 442.183594 C 586.296875 443.015625 586.960938 443.964844 587.746094 445.085938 C 588.609375 446.289062 589.550781 447.484375 590.738281 448.613281 C 591.921875 449.722656 593.453125 450.789062 595.285156 451.308594 C 597.109375 451.859375 598.960938 451.808594 600.480469 451.582031 C 602.03125 451.359375 603.394531 451.003906 604.726562 450.683594 L 606.695312 450.210938 C 607.265625 450.121094 607.804688 449.964844 608.375 449.957031 C 609.492188 449.859375 610.636719 449.878906 611.792969 450.101562 C 612.953125 450.339844 614.128906 450.664062 615.273438 451.140625 C 615.851562 451.367188 616.421875 451.640625 616.980469 451.9375 C 617.519531 452.28125 618.128906 452.425781 619.421875 452.054688 C 619.726562 450.730469 619.265625 450.035156 618.707031 449.554688 Z M 566.128906 309.296875 L 566.847656 307.425781 C 567.101562 306.90625 567.257812 306.414062 567.570312 305.953125 C 568.128906 305.023438 568.796875 304.128906 569.660156 303.355469 C 570.53125 302.589844 571.492188 301.867188 572.5625 301.238281 C 573.082031 300.914062 573.640625 300.628906 574.21875 300.367188 C 574.804688 300.128906 575.285156 299.738281 575.757812 298.484375 C 574.875 297.445312 574.050781 297.386719 573.34375 297.542969 C 572.628906 297.6875 571.90625 297.855469 571.199219 298.082031 C 569.777344 298.542969 568.375 299.167969 567.101562 300.070312 C 565.816406 300.945312 564.601562 302.050781 563.6875 303.394531 C 563.1875 304.03125 562.828125 304.796875 562.445312 305.484375 L 561.5625 307.335938 C 560.394531 309.835938 559.328125 311.925781 557.914062 312.601562 C 556.464844 313.375 554.011719 313.699219 551.511719 313.757812 C 548.691406 313.914062 545.550781 313.972656 542.328125 315.992188 C 540.710938 317.003906 539.464844 318.914062 539.113281 320.660156 C 538.699219 322.414062 538.796875 323.980469 538.953125 325.441406 C 539.003906 326.167969 539.121094 326.894531 539.199219 327.558594 C 539.199219 327.765625 539.210938 327.960938 539.238281 328.179688 C 539.238281 328.363281 539.171875 328.5 539.160156 328.6875 C 538.996094 329.285156 538.367188 329.855469 537.367188 330.316406 C 536.375 330.757812 535.179688 331.039062 533.945312 331.277344 C 533.328125 331.402344 532.691406 331.511719 532.054688 331.589844 C 531.40625 331.660156 530.777344 331.914062 530.023438 332.875 C 530.621094 333.960938 531.355469 334.238281 532.0625 334.316406 C 532.777344 334.382812 533.496094 334.441406 534.230469 334.433594 C 535.691406 334.421875 537.179688 334.238281 538.730469 333.6875 C 540.21875 333.199219 542.003906 332.011719 542.757812 330.011719 C 542.886719 329.53125 543.0625 329.019531 543.113281 328.539062 C 543.132812 328.078125 543.140625 327.601562 543.140625 327.128906 C 543.09375 326.433594 543.03125 325.824219 543.03125 325.199219 C 543.023438 323.960938 543.140625 322.777344 543.464844 321.914062 C 543.808594 321.03125 544.21875 320.582031 544.964844 320.21875 C 545.699219 319.84375 546.738281 319.589844 547.894531 319.503906 C 549.03125 319.355469 550.238281 319.363281 551.550781 319.382812 C 554.394531 319.335938 557.621094 319.363281 560.875 317.316406 C 562.464844 316.277344 563.660156 314.71875 564.394531 313.316406 C 565.148438 311.894531 565.640625 310.5625 566.128906 309.296875 Z M 232.8125 294.667969 C 233.539062 294.589844 234.226562 294.472656 234.921875 294.355469 C 235.460938 294.335938 235.882812 294.210938 236.253906 294.316406 C 237.007812 294.433594 237.578125 294.875 238.144531 295.71875 C 238.695312 296.550781 239.066406 297.679688 239.382812 298.867188 C 239.558594 299.453125 239.683594 300.070312 239.804688 300.699219 C 239.902344 301.328125 240.175781 301.925781 241.164062 302.628906 C 242.222656 302.003906 242.480469 301.257812 242.519531 300.550781 C 242.546875 299.835938 242.578125 299.109375 242.519531 298.375 C 242.410156 296.90625 242.085938 295.394531 241.304688 293.894531 C 240.578125 292.394531 238.941406 290.925781 237.019531 290.5625 C 236.085938 290.296875 235.144531 290.425781 234.363281 290.445312 C 233.714844 290.511719 233.078125 290.570312 232.460938 290.601562 C 229.910156 290.71875 227.726562 290.257812 227.027344 289.050781 C 226.15625 287.816406 225.832031 285.414062 225.804688 282.925781 C 225.726562 281.464844 225.636719 279.972656 225.246094 278.386719 C 224.851562 276.828125 224.148438 275.082031 222.84375 273.660156 C 221.570312 272.230469 219.941406 271.347656 218.519531 270.789062 C 217.089844 270.210938 215.753906 269.835938 214.460938 269.457031 L 212.550781 268.898438 C 211.980469 268.691406 211.480469 268.5625 210.980469 268.296875 C 209.980469 267.859375 209.03125 267.269531 208.167969 266.515625 C 207.3125 265.769531 206.5 264.90625 205.792969 263.925781 C 205.421875 263.457031 205.097656 262.925781 204.796875 262.398438 C 204.519531 261.839844 204.078125 261.398438 202.804688 261.035156 C 201.824219 261.964844 201.835938 262.800781 202.050781 263.496094 C 202.257812 264.199219 202.480469 264.90625 202.785156 265.59375 C 203.375 266.964844 204.167969 268.296875 205.195312 269.445312 C 206.234375 270.601562 207.433594 271.691406 208.84375 272.4375 C 209.511719 272.835938 210.292969 273.132812 210.972656 273.4375 L 212.882812 274.160156 C 215.390625 275.113281 217.785156 276.035156 218.617188 277.289062 C 219.539062 278.472656 220.019531 280.738281 220.1875 283.210938 C 220.46875 285.984375 220.675781 289.308594 223.265625 292.316406 C 224.589844 293.777344 226.546875 294.582031 228.207031 294.789062 C 229.882812 295.011719 231.390625 294.867188 232.8125 294.667969 Z M 493.007812 356.992188 L 427.851562 356.992188 C 426.292969 356.992188 425.027344 358.253906 425.027344 359.8125 C 425.027344 361.371094 426.292969 362.628906 427.851562 362.628906 L 493.007812 362.628906 C 494.566406 362.628906 495.828125 361.371094 495.828125 359.8125 C 495.828125 358.253906 494.566406 356.992188 493.007812 356.992188 Z M 420.441406 359.910156 C 420.441406 361.46875 419.175781 362.734375 417.617188 362.734375 L 231.617188 362.734375 C 230.058594 362.734375 228.792969 361.46875 228.792969 359.910156 C 228.792969 358.351562 230.058594 357.089844 231.617188 357.089844 L 417.617188 357.089844 C 419.175781 357.089844 420.441406 358.351562 420.441406 359.910156 " fill-opacity="1" fill-rule="nonzero"/></svg>